<svg xmlns="http://www.w3.org/2000/svg" width="574" height="446" fill="none"><path fill="#fff" d="M0 0h574v446H0z"/><g clip-path="url(#a)"><path fill="#fff" stroke="#231F20" stroke-miterlimit="10" d="M562.115 433.923h-550v-428h550v428z"/><path stroke="#231F20" stroke-miterlimit="10" d="M545.994 5.73v3.083"/><path stroke="#231F20" stroke-dasharray="6 6" stroke-miterlimit="10" d="M545.994 15.054v285.218"/><path stroke="#231F20" stroke-miterlimit="10" stroke-width="2" d="M545.994 303.431v3.082"/><path fill="#fff" d="M32.276 9.545 16.348 5.307z"/><path stroke="#FF4713" stroke-miterlimit="10" stroke-width="2" d="M32.276 9.545 16.348 5.307"/><path fill="#fff" d="m32.276 15.593-15.928-4.2z"/><path stroke="#FF4713" stroke-miterlimit="10" stroke-width="2" d="m32.276 15.593-15.928-4.2"/><path fill="#fff" d="m32.276 21.68-15.928-4.237z"/><path stroke="#FF4713" stroke-miterlimit="10" stroke-width="2" d="m32.276 21.68-15.928-4.237"/><path fill="#fff" d="m32.276 27.73-15.928-4.2z"/><path stroke="#FF4713" stroke-miterlimit="10" stroke-width="2" d="m32.276 27.73-15.928-4.2"/><path fill="#fff" d="m32.276 33.817-15.928-4.2z"/><path stroke="#FF4713" stroke-miterlimit="10" stroke-width="2" d="m32.276 33.817-15.928-4.2"/><path fill="#fff" d="m32.276 39.904-15.928-4.238z"/><path stroke="#FF4713" stroke-miterlimit="10" stroke-width="2" d="m32.276 39.904-15.928-4.238"/><path fill="#fff" d="m32.276 45.953-15.928-4.2z"/><path stroke="#FF4713" stroke-miterlimit="10" stroke-width="2" d="m32.276 45.953-15.928-4.2"/><path fill="#fff" d="m32.276 52.04-15.928-4.238z"/><path stroke="#FF4713" stroke-miterlimit="10" stroke-width="2" d="m32.276 52.04-15.928-4.238"/><path fill="#fff" d="m32.276 58.089-15.928-4.2z"/><path stroke="#FF4713" stroke-miterlimit="10" stroke-width="2" d="m32.276 58.089-15.928-4.2"/><path fill="#fff" d="m32.276 64.176-15.928-4.238z"/><path stroke="#FF4713" stroke-miterlimit="10" stroke-width="2" d="m32.276 64.176-15.928-4.238"/><path fill="#fff" d="m32.276 70.225-15.928-4.2z"/><path stroke="#FF4713" stroke-miterlimit="10" stroke-width="2" d="m32.276 70.225-15.928-4.2"/><path fill="#fff" d="m32.276 76.312-15.928-4.2z"/><path stroke="#FF4713" stroke-miterlimit="10" stroke-width="2" d="m32.276 76.312-15.928-4.2"/><path fill="#fff" d="m32.276 82.4-15.928-4.238z"/><path stroke="#FF4713" stroke-miterlimit="10" stroke-width="2" d="m32.276 82.4-15.928-4.238"/><path fill="#fff" d="M32.276 88.448 16.348 84.25z"/><path stroke="#FF4713" stroke-miterlimit="10" stroke-width="2" d="M32.276 88.448 16.348 84.25"/><path fill="#fff" d="m32.276 94.536-15.928-4.238z"/><path stroke="#FF4713" stroke-miterlimit="10" stroke-width="2" d="m32.276 94.536-15.928-4.238"/><path fill="#fff" d="m32.276 100.585-15.928-4.2z"/><path stroke="#FF4713" stroke-miterlimit="10" stroke-width="2" d="m32.276 100.585-15.928-4.2"/><path fill="#fff" d="m32.276 106.672-15.928-4.2z"/><path stroke="#FF4713" stroke-miterlimit="10" stroke-width="2" d="m32.276 106.672-15.928-4.2"/><path fill="#fff" d="m32.276 112.759-15.928-4.238z"/><path stroke="#FF4713" stroke-miterlimit="10" stroke-width="2" d="m32.276 112.759-15.928-4.238"/><path fill="#fff" d="m32.276 118.808-15.928-4.199z"/><path stroke="#FF4713" stroke-miterlimit="10" stroke-width="2" d="m32.276 118.808-15.928-4.199"/><path fill="#fff" d="m32.276 124.895-15.928-4.238z"/><path stroke="#FF4713" stroke-miterlimit="10" stroke-width="2" d="m32.276 124.895-15.928-4.238"/><path fill="#fff" d="m32.276 130.944-15.928-4.199z"/><path stroke="#FF4713" stroke-miterlimit="10" stroke-width="2" d="m32.276 130.944-15.928-4.199"/><path fill="#fff" d="m32.276 137.031-15.928-4.238z"/><path stroke="#FF4713" stroke-miterlimit="10" stroke-width="2" d="m32.276 137.031-15.928-4.238"/><path fill="#fff" d="m32.276 143.08-15.928-4.199z"/><path stroke="#FF4713" stroke-miterlimit="10" stroke-width="2" d="m32.276 143.08-15.928-4.199"/><path fill="#fff" d="m32.276 149.168-15.928-4.2z"/><path stroke="#FF4713" stroke-miterlimit="10" stroke-width="2" d="m32.276 149.168-15.928-4.2"/><path fill="#fff" d="m32.276 155.255-15.928-4.238z"/><path stroke="#FF4713" stroke-miterlimit="10" stroke-width="2" d="m32.276 155.255-15.928-4.238"/><path fill="#fff" d="m32.276 161.304-15.928-4.2z"/><path stroke="#FF4713" stroke-miterlimit="10" stroke-width="2" d="m32.276 161.304-15.928-4.2"/><path fill="#fff" d="m32.276 167.391-15.928-4.238z"/><path stroke="#FF4713" stroke-miterlimit="10" stroke-width="2" d="m32.276 167.391-15.928-4.238"/><path fill="#fff" d="m32.276 173.44-15.928-4.2z"/><path stroke="#FF4713" stroke-miterlimit="10" stroke-width="2" d="m32.276 173.44-15.928-4.2"/><path fill="#fff" d="m32.276 179.527-15.928-4.199z"/><path stroke="#FF4713" stroke-miterlimit="10" stroke-width="2" d="m32.276 179.527-15.928-4.199"/><path fill="#fff" d="m32.276 185.576-15.928-4.2z"/><path stroke="#FF4713" stroke-miterlimit="10" stroke-width="2" d="m32.276 185.576-15.928-4.2"/><path fill="#fff" d="m32.276 191.663-15.928-4.199z"/><path stroke="#FF4713" stroke-miterlimit="10" stroke-width="2" d="m32.276 191.663-15.928-4.199"/><path fill="#fff" d="m32.276 197.75-15.928-4.238z"/><path stroke="#FF4713" stroke-miterlimit="10" stroke-width="2" d="m32.276 197.75-15.928-4.238"/><path fill="#fff" d="M32.276 203.799 16.348 199.6z"/><path stroke="#FF4713" stroke-miterlimit="10" stroke-width="2" d="M32.276 203.799 16.348 199.6"/><path fill="#fff" d="m32.276 209.887-15.928-4.238z"/><path stroke="#FF4713" stroke-miterlimit="10" stroke-width="2" d="m32.276 209.887-15.928-4.238"/><path fill="#fff" d="m32.276 215.935-15.928-4.199z"/><path stroke="#FF4713" stroke-miterlimit="10" stroke-width="2" d="m32.276 215.935-15.928-4.199"/><path fill="#fff" d="m32.276 222.023-15.928-4.2z"/><path stroke="#FF4713" stroke-miterlimit="10" stroke-width="2" d="m32.276 222.023-15.928-4.2"/><path fill="#fff" d="m32.276 228.11-15.928-4.238z"/><path stroke="#FF4713" stroke-miterlimit="10" stroke-width="2" d="m32.276 228.11-15.928-4.238"/><path fill="#fff" d="m32.276 234.159-15.928-4.2z"/><path stroke="#FF4713" stroke-miterlimit="10" stroke-width="2" d="m32.276 234.159-15.928-4.2"/><path fill="#fff" d="m32.276 240.246-15.928-4.238z"/><path stroke="#FF4713" stroke-miterlimit="10" stroke-width="2" d="m32.276 240.246-15.928-4.238"/><path fill="#fff" d="m32.276 246.295-15.928-4.2z"/><path stroke="#FF4713" stroke-miterlimit="10" stroke-width="2" d="m32.276 246.295-15.928-4.2"/><path fill="#fff" d="m32.276 252.382-15.928-4.238z"/><path stroke="#FF4713" stroke-miterlimit="10" stroke-width="2" d="m32.276 252.382-15.928-4.238"/><path fill="#fff" d="m32.276 258.431-15.928-4.199z"/><path stroke="#FF4713" stroke-miterlimit="10" stroke-width="2" d="m32.276 258.431-15.928-4.199"/><path fill="#fff" d="m32.276 264.518-15.928-4.199z"/><path stroke="#FF4713" stroke-miterlimit="10" stroke-width="2" d="m32.276 264.518-15.928-4.199"/><path fill="#fff" d="m32.276 270.606-15.928-4.238z"/><path stroke="#FF4713" stroke-miterlimit="10" stroke-width="2" d="m32.276 270.606-15.928-4.238"/><path fill="#fff" d="m32.276 276.654-15.928-4.199z"/><path stroke="#FF4713" stroke-miterlimit="10" stroke-width="2" d="m32.276 276.654-15.928-4.199"/><path fill="#fff" d="m32.276 282.742-15.928-4.238z"/><path stroke="#FF4713" stroke-miterlimit="10" stroke-width="2" d="m32.276 282.742-15.928-4.238"/><path fill="#fff" d="m32.276 288.791-15.928-4.2z"/><path stroke="#FF4713" stroke-miterlimit="10" stroke-width="2" d="m32.276 288.791-15.928-4.2"/><path fill="#fff" d="m32.276 294.878-15.928-4.238z"/><path stroke="#FF4713" stroke-miterlimit="10" stroke-width="2" d="m32.276 294.878-15.928-4.238"/><path fill="#fff" d="m32.276 300.927-15.928-4.2z"/><path stroke="#FF4713" stroke-miterlimit="10" stroke-width="2" d="m32.276 300.927-15.928-4.2"/><path fill="#fff" d="m32.276 307.014-15.928-4.199z"/><path stroke="#FF4713" stroke-miterlimit="10" stroke-width="2" d="m32.276 307.014-15.928-4.199"/><path fill="#fff" d="m32.276 313.101-15.928-4.238z"/><path stroke="#FF4713" stroke-miterlimit="10" stroke-width="2" d="m32.276 313.101-15.928-4.238"/><path fill="#fff" d="m32.276 319.15-15.928-4.199z"/><path stroke="#FF4713" stroke-miterlimit="10" stroke-width="2" d="m32.276 319.15-15.928-4.199"/><path fill="#fff" d="m32.276 325.237-15.928-4.238z"/><path stroke="#FF4713" stroke-miterlimit="10" stroke-width="2" d="m32.276 325.237-15.928-4.238"/><path fill="#fff" d="m32.276 331.286-15.928-4.199z"/><path stroke="#FF4713" stroke-miterlimit="10" stroke-width="2" d="m32.276 331.286-15.928-4.199"/><path fill="#fff" d="m32.276 337.374-15.928-4.2z"/><path stroke="#FF4713" stroke-miterlimit="10" stroke-width="2" d="m32.276 337.374-15.928-4.2"/><path fill="#fff" d="m32.276 343.461-15.928-4.238z"/><path stroke="#FF4713" stroke-miterlimit="10" stroke-width="2" d="m32.276 343.461-15.928-4.238"/><path fill="#fff" d="m32.276 349.51-15.928-4.2z"/><path stroke="#FF4713" stroke-miterlimit="10" stroke-width="2" d="m32.276 349.51-15.928-4.2"/><path fill="#fff" d="m32.276 355.597-15.928-4.238z"/><path stroke="#FF4713" stroke-miterlimit="10" stroke-width="2" d="m32.276 355.597-15.928-4.238"/><path fill="#fff" d="m32.276 361.646-15.928-4.2z"/><path stroke="#FF4713" stroke-miterlimit="10" stroke-width="2" d="m32.276 361.646-15.928-4.2"/><path fill="#fff" d="m32.276 367.733-15.928-4.238z"/><path stroke="#FF4713" stroke-miterlimit="10" stroke-width="2" d="m32.276 367.733-15.928-4.238"/><path fill="#fff" d="m32.276 373.782-15.928-4.2z"/><path stroke="#FF4713" stroke-miterlimit="10" stroke-width="2" d="m32.276 373.782-15.928-4.2"/><path fill="#fff" d="m32.276 379.869-15.928-4.199z"/><path stroke="#FF4713" stroke-miterlimit="10" stroke-width="2" d="m32.276 379.869-15.928-4.199"/><path fill="#fff" d="m32.276 385.957-15.928-4.238z"/><path stroke="#FF4713" stroke-miterlimit="10" stroke-width="2" d="m32.276 385.957-15.928-4.238"/><path fill="#fff" d="m32.276 392.005-15.928-4.199z"/><path stroke="#FF4713" stroke-miterlimit="10" stroke-width="2" d="m32.276 392.005-15.928-4.199"/><path fill="#fff" d="m32.276 398.093-15.928-4.238z"/><path stroke="#FF4713" stroke-miterlimit="10" stroke-width="2" d="m32.276 398.093-15.928-4.238"/><path fill="#fff" d="m32.276 404.141-15.928-4.199z"/><path stroke="#FF4713" stroke-miterlimit="10" stroke-width="2" d="m32.276 404.141-15.928-4.199"/><path fill="#fff" d="m32.276 410.229-15.928-4.2z"/><path stroke="#FF4713" stroke-miterlimit="10" stroke-width="2" d="m32.276 410.229-15.928-4.2"/><path fill="#fff" d="m32.276 416.277-15.928-4.199z"/><path stroke="#FF4713" stroke-miterlimit="10" stroke-width="2" d="m32.276 416.277-15.928-4.199"/><path fill="#fff" d="m32.276 422.365-15.928-4.2z"/><path stroke="#FF4713" stroke-miterlimit="10" stroke-width="2" d="m32.276 422.365-15.928-4.2"/><path fill="#fff" d="m32.276 428.452-15.928-4.238z"/><path stroke="#FF4713" stroke-miterlimit="10" stroke-width="2" d="m32.276 428.452-15.928-4.238"/><path fill="#fff" d="m32.276 434.501-15.928-4.2z"/><path stroke="#FF4713" stroke-miterlimit="10" stroke-width="2" d="m32.276 434.501-15.928-4.2"/><path fill="#FFD400" d="M-2.62 4.382h23.354v443.18H-2.62V4.382z"/><path fill="#fff" d="m566.348 9.583-15.89-4.276z"/><path stroke="#FF4713" stroke-miterlimit="10" stroke-width="2" d="m566.348 9.583-15.89-4.276"/><path fill="#fff" d="m566.348 15.709-15.89-4.277z"/><path stroke="#FF4713" stroke-miterlimit="10" stroke-width="2" d="m566.348 15.709-15.89-4.277"/><path fill="#fff" d="m566.348 21.835-15.89-4.277z"/><path stroke="#FF4713" stroke-miterlimit="10" stroke-width="2" d="m566.348 21.835-15.89-4.277"/><path fill="#fff" d="m566.348 27.96-15.89-4.276z"/><path stroke="#FF4713" stroke-miterlimit="10" stroke-width="2" d="m566.348 27.96-15.89-4.276"/><path fill="#fff" d="m566.348 34.086-15.89-4.276z"/><path stroke="#FF4713" stroke-miterlimit="10" stroke-width="2" d="m566.348 34.086-15.89-4.276"/><path fill="#fff" d="m566.348 40.212-15.89-4.276z"/><path stroke="#FF4713" stroke-miterlimit="10" stroke-width="2" d="m566.348 40.212-15.89-4.276"/><path fill="#fff" d="m566.348 46.338-15.89-4.276z"/><path stroke="#FF4713" stroke-miterlimit="10" stroke-width="2" d="m566.348 46.338-15.89-4.276"/><path fill="#fff" d="m566.348 52.464-15.89-4.276z"/><path stroke="#FF4713" stroke-miterlimit="10" stroke-width="2" d="m566.348 52.464-15.89-4.276"/><path fill="#fff" d="m566.348 58.59-15.89-4.277z"/><path stroke="#FF4713" stroke-miterlimit="10" stroke-width="2" d="m566.348 58.59-15.89-4.277"/><path fill="#fff" d="m566.348 64.716-15.89-4.277z"/><path stroke="#FF4713" stroke-miterlimit="10" stroke-width="2" d="m566.348 64.716-15.89-4.277"/><path fill="#fff" d="m566.348 70.841-15.89-4.276z"/><path stroke="#FF4713" stroke-miterlimit="10" stroke-width="2" d="m566.348 70.841-15.89-4.276"/><path fill="#fff" d="m566.348 76.967-15.89-4.276z"/><path stroke="#FF4713" stroke-miterlimit="10" stroke-width="2" d="m566.348 76.967-15.89-4.276"/><path fill="#fff" d="m566.348 83.093-15.89-4.276z"/><path stroke="#FF4713" stroke-miterlimit="10" stroke-width="2" d="m566.348 83.093-15.89-4.276"/><path fill="#fff" d="m566.348 89.22-15.89-4.278z"/><path stroke="#FF4713" stroke-miterlimit="10" stroke-width="2" d="m566.348 89.22-15.89-4.278"/><path fill="#fff" d="m566.348 95.345-15.89-4.277z"/><path stroke="#FF4713" stroke-miterlimit="10" stroke-width="2" d="m566.348 95.345-15.89-4.277"/><path fill="#fff" d="m566.348 101.471-15.89-4.277z"/><path stroke="#FF4713" stroke-miterlimit="10" stroke-width="2" d="m566.348 101.471-15.89-4.277"/><path fill="#fff" d="m566.348 107.597-15.89-4.277z"/><path stroke="#FF4713" stroke-miterlimit="10" stroke-width="2" d="m566.348 107.597-15.89-4.277"/><path fill="#fff" d="m566.348 113.722-15.89-4.276z"/><path stroke="#FF4713" stroke-miterlimit="10" stroke-width="2" d="m566.348 113.722-15.89-4.276"/><path fill="#fff" d="m566.348 119.81-15.89-4.238z"/><path stroke="#FF4713" stroke-miterlimit="10" stroke-width="2" d="m566.348 119.81-15.89-4.238"/><path fill="#fff" d="m566.348 125.936-15.89-4.238z"/><path stroke="#FF4713" stroke-miterlimit="10" stroke-width="2" d="m566.348 125.936-15.89-4.238"/><path fill="#fff" d="m566.348 132.061-15.89-4.238z"/><path stroke="#FF4713" stroke-miterlimit="10" stroke-width="2" d="m566.348 132.061-15.89-4.238"/><path fill="#fff" d="m566.348 138.187-15.89-4.238z"/><path stroke="#FF4713" stroke-miterlimit="10" stroke-width="2" d="m566.348 138.187-15.89-4.238"/><path fill="#fff" d="m566.348 144.313-15.89-4.238z"/><path stroke="#FF4713" stroke-miterlimit="10" stroke-width="2" d="m566.348 144.313-15.89-4.238"/><path fill="#fff" d="m566.348 150.439-15.89-4.238z"/><path stroke="#FF4713" stroke-miterlimit="10" stroke-width="2" d="m566.348 150.439-15.89-4.238"/><path fill="#fff" d="m566.348 156.565-15.89-4.238z"/><path stroke="#FF4713" stroke-miterlimit="10" stroke-width="2" d="m566.348 156.565-15.89-4.238"/><path fill="#fff" d="m566.348 162.691-15.89-4.238z"/><path stroke="#FF4713" stroke-miterlimit="10" stroke-width="2" d="m566.348 162.691-15.89-4.238"/><path fill="#fff" d="m566.348 168.816-15.89-4.238z"/><path stroke="#FF4713" stroke-miterlimit="10" stroke-width="2" d="m566.348 168.816-15.89-4.238"/><path fill="#fff" d="m566.348 174.942-15.89-4.238z"/><path stroke="#FF4713" stroke-miterlimit="10" stroke-width="2" d="m566.348 174.942-15.89-4.238"/><path fill="#fff" d="m566.348 181.068-15.89-4.238z"/><path stroke="#FF4713" stroke-miterlimit="10" stroke-width="2" d="m566.348 181.068-15.89-4.238"/><path fill="#fff" d="m566.348 187.194-15.89-4.238z"/><path stroke="#FF4713" stroke-miterlimit="10" stroke-width="2" d="m566.348 187.194-15.89-4.238"/><path fill="#fff" d="m566.348 193.32-15.89-4.238z"/><path stroke="#FF4713" stroke-miterlimit="10" stroke-width="2" d="m566.348 193.32-15.89-4.238"/><path fill="#fff" d="m566.348 199.446-15.89-4.238z"/><path stroke="#FF4713" stroke-miterlimit="10" stroke-width="2" d="m566.348 199.446-15.89-4.238"/><path fill="#fff" d="m566.348 205.572-15.89-4.238z"/><path stroke="#FF4713" stroke-miterlimit="10" stroke-width="2" d="m566.348 205.572-15.89-4.238"/><path fill="#fff" d="m566.348 211.697-15.89-4.238z"/><path stroke="#FF4713" stroke-miterlimit="10" stroke-width="2" d="m566.348 211.697-15.89-4.238"/><path fill="#fff" d="m566.348 217.823-15.89-4.238z"/><path stroke="#FF4713" stroke-miterlimit="10" stroke-width="2" d="m566.348 217.823-15.89-4.238"/><path fill="#fff" d="m566.348 223.949-15.89-4.238z"/><path stroke="#FF4713" stroke-miterlimit="10" stroke-width="2" d="m566.348 223.949-15.89-4.238"/><path fill="#fff" d="m566.348 230.075-15.89-4.238z"/><path stroke="#FF4713" stroke-miterlimit="10" stroke-width="2" d="m566.348 230.075-15.89-4.238"/><path fill="#fff" d="m566.348 236.201-15.89-4.238z"/><path stroke="#FF4713" stroke-miterlimit="10" stroke-width="2" d="m566.348 236.201-15.89-4.238"/><path fill="#fff" d="m566.348 242.327-15.89-4.238z"/><path stroke="#FF4713" stroke-miterlimit="10" stroke-width="2" d="m566.348 242.327-15.89-4.238"/><path fill="#fff" d="m566.348 248.452-15.89-4.238z"/><path stroke="#FF4713" stroke-miterlimit="10" stroke-width="2" d="m566.348 248.452-15.89-4.238"/><path fill="#fff" d="m566.348 254.578-15.89-4.238z"/><path stroke="#FF4713" stroke-miterlimit="10" stroke-width="2" d="m566.348 254.578-15.89-4.238"/><path fill="#fff" d="m566.348 260.704-15.89-4.238z"/><path stroke="#FF4713" stroke-miterlimit="10" stroke-width="2" d="m566.348 260.704-15.89-4.238"/><path fill="#fff" d="m566.348 266.83-15.89-4.238z"/><path stroke="#FF4713" stroke-miterlimit="10" stroke-width="2" d="m566.348 266.83-15.89-4.238"/><path fill="#fff" d="m566.348 272.956-15.89-4.238z"/><path stroke="#FF4713" stroke-miterlimit="10" stroke-width="2" d="m566.348 272.956-15.89-4.238"/><path fill="#fff" d="m566.348 279.082-15.89-4.238z"/><path stroke="#FF4713" stroke-miterlimit="10" stroke-width="2" d="m566.348 279.082-15.89-4.238"/><path fill="#fff" d="m566.348 285.208-15.89-4.238z"/><path stroke="#FF4713" stroke-miterlimit="10" stroke-width="2" d="m566.348 285.208-15.89-4.238"/><path fill="#fff" d="m566.348 291.333-15.89-4.238z"/><path stroke="#FF4713" stroke-miterlimit="10" stroke-width="2" d="m566.348 291.333-15.89-4.238"/><path fill="#fff" d="m566.348 297.459-15.89-4.238z"/><path stroke="#FF4713" stroke-miterlimit="10" stroke-width="2" d="m566.348 297.459-15.89-4.238"/><path fill="#fff" d="m566.348 303.585-15.89-4.238z"/><path stroke="#FF4713" stroke-miterlimit="10" stroke-width="2" d="m566.348 303.585-15.89-4.238"/><path fill="#fff" d="m566.348 309.711-15.89-4.238z"/><path stroke="#FF4713" stroke-miterlimit="10" stroke-width="2" d="m566.348 309.711-15.89-4.238"/><path fill="#fff" d="m566.348 315.837-15.89-4.238z"/><path stroke="#FF4713" stroke-miterlimit="10" stroke-width="2" d="m566.348 315.837-15.89-4.238"/><path fill="#fff" d="m566.348 321.963-15.89-4.238z"/><path stroke="#FF4713" stroke-miterlimit="10" stroke-width="2" d="m566.348 321.963-15.89-4.238"/><path fill="#fff" d="m566.348 328.088-15.89-4.276z"/><path stroke="#FF4713" stroke-miterlimit="10" stroke-width="2" d="m566.348 328.088-15.89-4.276"/><path fill="#fff" d="m566.348 334.214-15.89-4.276z"/><path stroke="#FF4713" stroke-miterlimit="10" stroke-width="2" d="m566.348 334.214-15.89-4.276"/><path fill="#fff" d="m566.348 340.34-15.89-4.276z"/><path stroke="#FF4713" stroke-miterlimit="10" stroke-width="2" d="m566.348 340.34-15.89-4.276"/><path fill="#fff" d="m566.348 346.466-15.89-4.277z"/><path stroke="#FF4713" stroke-miterlimit="10" stroke-width="2" d="m566.348 346.466-15.89-4.277"/><path fill="#fff" d="m566.348 352.592-15.89-4.277z"/><path stroke="#FF4713" stroke-miterlimit="10" stroke-width="2" d="m566.348 352.592-15.89-4.277"/><path fill="#fff" d="m566.348 358.718-15.89-4.277z"/><path stroke="#FF4713" stroke-miterlimit="10" stroke-width="2" d="m566.348 358.718-15.89-4.277"/><path fill="#fff" d="m566.348 364.843-15.89-4.276z"/><path stroke="#FF4713" stroke-miterlimit="10" stroke-width="2" d="m566.348 364.843-15.89-4.276"/><path fill="#fff" d="m566.348 370.969-15.89-4.276z"/><path stroke="#FF4713" stroke-miterlimit="10" stroke-width="2" d="m566.348 370.969-15.89-4.276"/><path fill="#fff" d="m566.348 377.095-15.89-4.276z"/><path stroke="#FF4713" stroke-miterlimit="10" stroke-width="2" d="m566.348 377.095-15.89-4.276"/><path fill="#fff" d="m566.348 383.221-15.89-4.277z"/><path stroke="#FF4713" stroke-miterlimit="10" stroke-width="2" d="m566.348 383.221-15.89-4.277"/><path fill="#fff" d="m566.348 389.347-15.89-4.277z"/><path stroke="#FF4713" stroke-miterlimit="10" stroke-width="2" d="m566.348 389.347-15.89-4.277"/><path fill="#fff" d="m566.348 395.473-15.89-4.277z"/><path stroke="#FF4713" stroke-miterlimit="10" stroke-width="2" d="m566.348 395.473-15.89-4.277"/><path fill="#fff" d="m566.348 401.599-15.89-4.277z"/><path stroke="#FF4713" stroke-miterlimit="10" stroke-width="2" d="m566.348 401.599-15.89-4.277"/><path fill="#fff" d="m566.348 407.724-15.89-4.276z"/><path stroke="#FF4713" stroke-miterlimit="10" stroke-width="2" d="m566.348 407.724-15.89-4.276"/><path fill="#fff" d="m566.348 413.85-15.89-4.276z"/><path stroke="#FF4713" stroke-miterlimit="10" stroke-width="2" d="m566.348 413.85-15.89-4.276"/><path fill="#fff" stroke="#231F20" stroke-miterlimit="10" d="M574.12 444.903H-.004V285.4H574.12v159.503z"/><path fill="#fff" stroke="#231F20" stroke-miterlimit="10" d="M574.12 429.068H471.969V285.4H574.12v143.668z"/><path fill="#231F20" fill-rule="evenodd" d="M136.967 322.926v-20.728h8.849v2.967h-5.54v5.856h4.771v2.928h-4.771v6.049h5.54v2.928h-8.849zm18.737 0-2.424-7.436-2.424 7.436h-3.655l4.194-10.749-3.848-9.979h3.617l2.116 6.935 2.078-6.935h3.655l-3.924 9.979 4.232 10.749h-3.617zm11.042-8.13h-2v8.13h-3.309v-20.728h5.309c3.809 0 5.387 2.003 5.387 6.318 0 4.354-1.578 6.28-5.387 6.28zm-.115-9.631h-1.885v6.703h1.885c1.77 0 2.193-1.233 2.193-3.352 0-2.08-.423-3.351-2.193-3.351zm17.352 16.22c-.846 1.001-2.116 1.772-4.078 1.772-1.924 0-3.194-.771-4.078-1.772-1.386-1.657-1.539-3.892-1.539-8.823 0-4.932.153-7.166 1.539-8.823.884-1.002 2.154-1.772 4.078-1.772 1.962 0 3.232.77 4.078 1.772 1.424 1.657 1.539 3.891 1.539 8.823 0 4.931-.115 7.204-1.539 8.823zm-2.462-15.681c-.308-.462-.808-.809-1.616-.809-.77 0-1.27.347-1.539.809-.654 1.002-.77 3.082-.77 6.858s.116 5.895.77 6.858c.269.462.769.809 1.539.809.808 0 1.308-.347 1.616-.809.615-.963.692-3.082.692-6.858s-.077-5.856-.692-6.858zm14.928 17.222-2.77-8.515h-1.847v8.515h-3.309v-20.728h5.31c3.847 0 5.386 1.849 5.386 6.126 0 2.543-.538 4.392-2.462 5.394l3.155 9.208h-3.463zm-2.578-17.761h-2.039v6.318h2.039c1.77 0 2.039-1.464 2.039-3.159 0-1.734-.269-3.159-2.039-3.159zm13.697 0v17.761h-3.308v-17.761h-3.502v-2.967h10.35v2.967h-3.54zm13.197 17.761-.846-4.084h-4.886l-.847 4.084h-3.463l5.156-20.728h3.232l5.117 20.728h-3.463zm-3.27-15.719-1.808 8.668h3.578l-1.77-8.668zm17.083 14.64c-.924.886-2.039 1.31-3.617 1.31-1.962 0-3.232-.771-4.078-1.772-1.385-1.619-1.539-3.892-1.539-8.823 0-4.893.154-7.166 1.539-8.823.846-1.002 2.116-1.772 4.078-1.772 1.578 0 2.732.462 3.694 1.348 1.077.963 1.616 2.543 1.693 4.354h-3.309c-.039-.732-.154-1.503-.5-2.004-.308-.462-.77-.732-1.578-.732s-1.269.309-1.577.771c-.654 1.002-.731 3.082-.731 6.858s.077 5.895.731 6.858c.308.501.769.809 1.577.809.808 0 1.27-.308 1.578-.771.346-.501.461-1.271.5-2.042h3.309c-.077 1.888-.693 3.468-1.77 4.431zm4.54 1.079v-20.728h3.309v20.728h-3.309zm16.005-1.541c-.884 1.001-2.154 1.772-4.078 1.772-1.962 0-3.232-.771-4.078-1.772-1.424-1.657-1.539-3.892-1.539-8.823 0-4.893.115-7.166 1.539-8.823.846-1.002 2.116-1.772 4.078-1.772 1.924 0 3.194.77 4.078 1.772 1.386 1.657 1.501 3.93 1.501 8.823 0 4.931-.115 7.204-1.501 8.823zm-2.5-15.681c-.308-.462-.808-.771-1.578-.771-.808 0-1.308.309-1.577.771-.616 1.002-.731 3.082-.731 6.858s.115 5.895.731 6.858c.269.501.769.809 1.577.809.77 0 1.27-.308 1.578-.809.615-.963.692-3.082.692-6.858s-.077-5.856-.692-6.858zm-.731-4.893h-2.193l2.116-4.045h2.654l-2.577 4.045zm16.005 22.115-4.963-12.291v12.291h-3.309v-20.728h2.963l4.924 12.329v-12.329h3.309v20.728h-2.924zm21.2-1.695c-.885.924-2.078 1.695-4.078 1.695h-5.348v-20.728h5.348c2 0 3.193.771 4.078 1.734 1.423 1.541 1.539 3.852 1.539 8.591 0 4.778-.116 7.128-1.539 8.708zm-2.501-15.219c-.308-.501-.885-.847-1.693-.847h-1.924v14.833h1.924c.808 0 1.385-.347 1.693-.848.654-.963.731-3.005.731-6.627 0-3.583-.077-5.586-.731-6.511zm7.002 16.914v-20.728h8.85v2.967h-5.541v5.856h4.771v2.928h-4.771v6.049h5.541v2.928h-8.85zm25.663-1.079c-.923.886-2.039 1.31-3.616 1.31-1.963 0-3.232-.771-4.079-1.772-1.385-1.619-1.539-3.892-1.539-8.823 0-4.893.154-7.166 1.539-8.823.847-1.002 2.116-1.772 4.079-1.772 1.577 0 2.731.462 3.693 1.348 1.078.963 1.616 2.543 1.693 4.354h-3.309c-.038-.732-.154-1.503-.5-2.004-.308-.462-.769-.732-1.577-.732-.808 0-1.27.309-1.578.771-.654 1.002-.731 3.082-.731 6.858s.077 5.895.731 6.858c.308.501.77.809 1.578.809s1.269-.308 1.577-.771c.346-.501.462-1.271.5-2.042h3.309c-.077 1.888-.692 3.468-1.77 4.431zm12.466 1.079-2.77-8.476h-1.847v8.476h-3.309v-20.728h5.31c3.847 0 5.386 1.849 5.386 6.126 0 2.543-.538 4.392-2.462 5.394l3.155 9.208h-3.463zm-2.578-17.761h-2.039v6.318h2.039c1.77 0 2.04-1.425 2.04-3.159 0-1.734-.27-3.159-2.04-3.159zm8.773 17.761v-20.728h8.849v2.967h-5.54v5.856h4.77v2.928h-4.77v6.049h5.54v2.928h-8.849zm20.122 0-.846-4.084h-4.887l-.846 4.084h-3.463l5.156-20.728h3.232l5.117 20.728h-3.463zm-3.309-15.719-1.77 8.668h3.579l-1.809-8.668zm13.197-2.042v17.761h-3.309v-17.761h-3.539v-2.967h10.388v2.967h-3.54zm5.925 17.761v-20.728h3.309v20.728h-3.309zm13.274 0h-3.424l-4.617-20.728h3.617l2.693 15.719 2.732-15.719h3.616l-4.617 20.728zm6.541 0v-20.689h3.309v20.689h-3.309zm16.275-1.695c-.847.963-2.078 1.695-4.078 1.695h-5.349v-20.689h5.349c2 0 3.231.732 4.078 1.695 1.423 1.541 1.539 3.852 1.539 8.63 0 4.777-.116 7.127-1.539 8.669zm-2.463-15.219c-.346-.501-.884-.847-1.692-.847h-1.963v14.833h1.963c.808 0 1.346-.347 1.692-.848.655-.963.693-3.005.693-6.588 0-3.622-.038-5.587-.693-6.55zm15.275 16.914-.846-4.084h-4.887l-.846 4.084h-3.463l5.156-20.689h3.232l5.117 20.689h-3.463zm-3.309-15.681-1.77 8.669h3.579l-1.809-8.669zm18.122 13.986c-.847.963-2.078 1.695-4.078 1.695h-5.348v-20.689h5.348c2 0 3.231.732 4.078 1.695 1.424 1.541 1.539 3.852 1.539 8.63 0 4.777-.115 7.127-1.539 8.669zm-2.462-15.219c-.347-.501-.885-.847-1.693-.847h-1.963v14.833h1.963c.808 0 1.346-.347 1.693-.848.654-.963.692-2.967.692-6.588 0-3.622-.038-5.587-.692-6.55zm-281.945 23.579v20.689h-5.156v-8.206h-5.502v8.206h-5.194v-20.689h5.194v7.975h5.502v-7.975h5.156zm18.583 16.181v4.508h-14.313v-20.689h14.313v4.508h-9.157v3.467h7.811v4.546h-7.811v3.66h9.157zm13.351-.963 3.463 3.352c-.795.771-1.642 1.349-2.54 1.734-.897.385-2 .578-3.308.578-2.335 0-4.284-.784-5.849-2.35-.923-.899-1.513-1.927-1.769-3.083-.231-1.155-.347-2.619-.347-4.392v-1.387c0-1.798.116-3.275.347-4.43.256-1.156.846-2.196 1.769-3.121.796-.771 1.668-1.349 2.617-1.734.923-.385 2-.578 3.232-.578 1.308 0 2.411.193 3.308.578a8.76 8.76 0 0 1 2.54 1.734l-3.463 3.39c-.385-.411-.744-.706-1.077-.886-.334-.18-.77-.269-1.308-.269-.873 0-1.539.295-2.001.886-.18.205-.334.475-.462.809-.102.308-.192.796-.269 1.464-.051.642-.077 1.592-.077 2.851 0 1.669.064 2.838.192 3.506.129.693.334 1.22.616 1.579.462.591 1.128.887 2.001.887.538 0 .974-.09 1.308-.27.333-.18.692-.463 1.077-.848zm22.315-15.218v20.689h-5.155v-8.206h-5.502v8.206h-5.194v-20.689h5.194v7.975h5.502v-7.975h5.155zm13.775 0 7.656 20.689h-5.386l-1.001-3.082h-6.464l-1.038 3.082h-5.425l7.656-20.689h4.002zm-3.733 13.369h3.656l-1.77-5.509-1.886 5.509zm34.397 2.774v4.546H237.54v-20.728h14.313v4.547h-9.118v3.467h7.771v4.546h-7.771v3.622h9.118zm20.084-16.182v20.728h-4.54l-6.733-10.402v10.402h-5.194v-20.728h4.54l6.733 10.441v-10.441h5.194zm22.931 12.098 4.54 8.63h-6.002l-3.693-7.705h-1.77v7.705h-5.156v-20.728h8.311c1.513 0 2.808.321 3.886.964 1.077.616 1.898 1.425 2.462 2.427a6.703 6.703 0 0 1 .846 3.275c0 1.31-.333 2.427-1 3.352-.667.924-1.475 1.618-2.424 2.08zm-1.731-5.432c0-.36-.103-.707-.308-1.041-.154-.308-.41-.565-.77-.77-.333-.18-.731-.27-1.192-.27h-2.924v4.2h2.924c.461 0 .859-.103 1.192-.309.36-.205.616-.462.77-.77.205-.308.308-.655.308-1.04zm24.585 2.003v3.39c0 1.002-.051 1.863-.154 2.582a6.43 6.43 0 0 1-.615 2.08c-.308.694-.783 1.349-1.424 1.965-1.385 1.361-3.283 2.042-5.694 2.042h-7.81v-20.728h7.81c2.411 0 4.309.681 5.694 2.042.641.642 1.116 1.31 1.424 2.004.333.668.538 1.361.615 2.08.103.694.154 1.541.154 2.543zm-5.194 1.695c0-1.695-.038-2.812-.115-3.352-.077-.565-.218-1.001-.423-1.31-.539-.77-1.373-1.155-2.501-1.155h-2.27v11.635h2.27c1.128 0 1.962-.385 2.501-1.156.153-.231.256-.475.307-.732.077-.231.141-.642.193-1.233.025-.591.038-1.49.038-2.697z" clip-rule="evenodd"/><path fill="#fff" stroke="#231F20" stroke-miterlimit="10" d="M574.004 464.976H-.004V364.227h574.008v100.749z"/><path fill="#fff" d="M120.038 348.97h-89.34v-48.12h89.34v48.12z"/><path fill="#0057D6" d="M71.636 321.269H30.7V300.85h40.937v20.419z"/><path fill="#FF4713" d="M120.038 321.269h-40.9V300.85h40.9v20.419zM71.636 348.97H30.7v-20.419h40.937v20.419z"/><path fill="#0057D6" d="M120.038 348.97h-40.9v-20.419h40.9v20.419z"/><path fill="#FF6D00" fill-rule="evenodd" d="m545.302 344.347-9.426 9.439-9.427-9.439h-16.967c-.116 4.816-4.04 8.707-8.888 8.707-4.925 0-8.926-4.007-8.926-8.938 0-4.855 3.886-8.784 8.695-8.9v-16.991l-9.426-9.439 9.426-9.439 9.427 9.439h17.159c0-4.931 4.002-8.938 8.927-8.938 4.924 0 8.887 4.007 8.887 8.938 0 4.932-3.963 8.939-8.887 8.939v17.183l9.426 9.439zm-13.813-35.561a4.388 4.388 0 0 0 4.387 4.392c2.424 0 4.347-1.965 4.347-4.392a4.32 4.32 0 0 0-4.347-4.353c-2.424 0-4.387 1.926-4.387 4.353zm-3.347 4.431h-22.777l-.577.578v22.461c.359.206.692.411 1 .617a17.71 17.71 0 0 1 8.388-4.547c-2.963-1.464-4.964-4.469-4.964-7.975 0-4.931 4.002-8.938 8.888-8.938 4.925 0 8.926 4.007 8.926 8.938 0 3.506-2 6.511-4.963 7.975a17.936 17.936 0 0 1 9.388 5.587V316.53a9.108 9.108 0 0 1-3.309-3.313zm-5.656 11.134a4.387 4.387 0 0 0-4.386-4.392c-2.385 0-4.348 1.965-4.348 4.392 0 2.389 1.963 4.354 4.348 4.354 2.424 0 4.386-1.965 4.386-4.354zm-25.278-15.565 3.155 3.159 3.155-3.159-3.155-3.121-3.155 3.121zm7.734 35.33a4.388 4.388 0 0 0-4.386-4.392c-2.386 0-4.348 1.965-4.348 4.392 0 2.388 1.962 4.353 4.348 4.353 2.423 0 4.386-1.965 4.386-4.353zm20.391-4.2c-2-1.541-4.501-2.427-7.233-2.427-2.732 0-5.232.886-7.233 2.427h14.466zm10.504 7.552 3.117-3.16-3.117-3.12-3.155 3.12 3.155 3.16z" clip-rule="evenodd"/><path stroke="#000" stroke-miterlimit="10" d="M561.5 433.5h-549V6.5h549v427z"/><path fill="#000" fill-rule="evenodd" d="M39.356 399.672c-.962.886-2.04 1.31-3.655 1.31-1.963 0-3.232-.77-4.079-1.772-1.385-1.657-1.539-3.93-1.539-8.861 0-4.932.154-7.205 1.54-8.823.846-1.002 2.115-1.772 4.078-1.772 1.616 0 2.77.462 3.693 1.348 1.078.963 1.655 2.543 1.693 4.354h-3.309c-.038-.732-.154-1.503-.5-2.004-.308-.462-.77-.77-1.577-.77-.808 0-1.27.346-1.578.809-.654.963-.73 3.082-.73 6.858 0 3.814.076 5.894.73 6.896.308.462.77.809 1.578.809s1.27-.308 1.577-.771c.346-.539.462-1.271.5-2.042h3.31c-.04 1.85-.655 3.468-1.732 4.431zm13.85-.462c-.884 1.002-2.154 1.772-4.116 1.772-1.962 0-3.232-.77-4.079-1.772-1.385-1.657-1.538-3.93-1.538-8.861 0-4.932.154-7.167 1.538-8.823.847-1.002 2.117-1.772 4.079-1.772 1.962 0 3.232.77 4.117 1.772 1.423 1.618 1.539 3.891 1.539 8.823 0 4.931-.116 7.204-1.54 8.861zm-2.5-15.719c-.308-.463-.808-.809-1.616-.809-.77 0-1.27.346-1.578.809-.615.963-.73 3.082-.73 6.858 0 3.814.115 5.894.73 6.896.308.462.808.809 1.578.809.808 0 1.308-.347 1.616-.809.615-1.002.692-3.082.692-6.896 0-3.776-.077-5.895-.692-6.858zm15.313 17.26-4.963-12.329v12.329h-3.348v-20.766h2.963l4.963 12.328v-12.328h3.309v20.766h-2.924zm9.811-17.838v5.894h4.77v2.967h-4.77v8.977h-3.309v-20.766h8.85v2.928H75.83zm8.234 17.838v-20.766h8.887v2.928h-5.578v5.894h4.77v2.967h-4.77v6.049h5.578v2.928h-8.887zm19.66 0-2.77-8.515h-1.847v8.515H95.76v-20.766h5.348c3.848 0 5.387 1.849 5.387 6.126 0 2.581-.539 4.392-2.463 5.432l3.155 9.208h-3.463zm-2.577-17.838h-2.04v6.357h2.04c1.769 0 2.039-1.426 2.039-3.159 0-1.734-.27-3.198-2.039-3.198zm8.81 17.838v-20.766h8.85v2.928h-5.541v5.894h4.771v2.967h-4.771v6.049h5.541v2.928h-8.85zm20.007 0-4.963-12.329v12.329h-3.309v-20.766h2.963l4.925 12.328v-12.328h3.347v20.766h-2.963zm15.198-1.079c-.962.886-2.039 1.31-3.655 1.31-1.962 0-3.232-.77-4.079-1.772-1.385-1.657-1.539-3.93-1.539-8.861 0-4.932.154-7.205 1.539-8.823.847-1.002 2.117-1.772 4.079-1.772 1.616 0 2.77.462 3.693 1.348 1.078.963 1.655 2.543 1.693 4.354h-3.309c-.038-.732-.153-1.503-.5-2.004-.307-.462-.769-.77-1.577-.77-.808 0-1.27.346-1.578.809-.654.963-.731 3.082-.731 6.858 0 3.814.077 5.894.731 6.896.308.462.77.809 1.578.809s1.27-.308 1.577-.771c.347-.539.462-1.271.5-2.042h3.309c-.038 1.85-.692 3.468-1.731 4.431zm4.54 1.079v-20.766h3.309v20.766h-3.309zm15.313 0-.846-4.122h-4.887l-.846 4.122h-3.501l5.194-20.766h3.232l5.117 20.766h-3.463zm-3.27-15.758-1.809 8.707h3.617l-1.808-8.707zm24.855 15.758v-12.984l-2.886 8.553h-1.847l-2.809-8.399v12.83h-3.308v-20.766h3.001l4.078 10.903 4.04-10.903h3.039v20.766H186.6zm15.313 0-.847-4.122h-4.886l-.847 4.122h-3.501l5.194-20.766h3.232l5.117 20.766h-3.462zm-3.271-15.758-1.808 8.669h3.617l-1.809-8.669zm13.466 15.989c-1.962 0-3.231-.732-4.078-1.772-1.385-1.618-1.539-3.891-1.539-8.823 0-4.931.154-7.205 1.539-8.861.847-1.002 2.116-1.772 4.078-1.772 1.616 0 2.886.539 3.771 1.387 1.039 1.078 1.577 2.581 1.616 4.353h-3.309c-.038-1.117-.269-2.774-2.078-2.774-.808 0-1.269.308-1.577.771-.654 1.001-.731 3.082-.731 6.896 0 3.776.077 5.895.731 6.858.308.501.769.809 1.577.809 1.462 0 2.078-1.233 2.078-2.658v-3.237h-2.078v-2.697h5.387v5.741c0 3.814-2.232 5.779-5.387 5.779zm8.426-.231v-20.766h3.309v20.766h-3.309zm15.698-1.156c-.846.809-2.231 1.387-4.117 1.387-1.846 0-3.193-.501-4.078-1.387-1-1.002-1.385-2.273-1.385-4.469h3.347c0 1.117.116 1.811.577 2.35.308.308.808.539 1.539.539.77 0 1.27-.192 1.616-.577.424-.501.539-1.195.539-2.312 0-2.196-.346-2.774-1.962-3.39l-2.54-1.041c-2.116-.886-2.924-2.003-2.924-5.201 0-1.888.577-3.39 1.732-4.431.923-.77 2.077-1.232 3.616-1.232 1.693 0 2.924.423 3.771 1.232 1.116 1.041 1.5 2.543 1.5 4.547h-3.347c0-.963-.038-1.696-.5-2.235-.269-.385-.77-.616-1.462-.616-.693 0-1.116.231-1.424.578-.384.462-.577 1.155-.577 2.042 0 1.695.27 2.234 1.77 2.812l2.462 1.002c2.54 1.001 3.232 2.311 3.232 5.817 0 2.119-.307 3.545-1.385 4.585zm9.811-16.644v17.8h-3.308v-17.8h-3.54v-2.966h10.388v2.966h-3.54zm13.928 17.8-2.77-8.515h-1.885v8.515h-3.309v-20.766h5.348c3.848 0 5.387 1.849 5.387 6.126 0 2.581-.539 4.43-2.463 5.432l3.155 9.208h-3.463zm-2.578-17.8h-2.039v6.357h2.039c1.77 0 2.04-1.464 2.04-3.197 0-1.696-.27-3.16-2.04-3.16zm17.237 17.8-.846-4.084h-4.925l-.808 4.084h-3.501l5.194-20.766h3.232l5.117 20.766h-3.463zm-3.27-15.758-1.808 8.707h3.578l-1.77-8.707zm8.734 15.758v-20.766h3.309v17.799h5.54v2.967h-8.849zm25.355-1.079c-.924.886-2.039 1.31-3.617 1.31-1.962 0-3.232-.77-4.117-1.772-1.385-1.657-1.539-3.93-1.539-8.861 0-4.932.154-7.205 1.539-8.823.885-1.04 2.155-1.772 4.117-1.772 1.578 0 2.732.462 3.694 1.348 1.077.963 1.616 2.504 1.693 4.354h-3.309c-.039-.771-.154-1.503-.539-2.004-.269-.462-.769-.77-1.539-.77-.808 0-1.27.346-1.577.809-.654.963-.731 3.082-.731 6.858 0 3.814.077 5.894.731 6.896.307.462.769.77 1.577.77.77 0 1.27-.269 1.539-.732.385-.539.5-1.309.539-2.042h3.309c-.077 1.85-.693 3.468-1.77 4.431zm13.851-.462c-.847 1.002-2.116 1.772-4.079 1.772-1.962 0-3.231-.77-4.116-1.772-1.386-1.657-1.539-3.93-1.539-8.861 0-4.932.153-7.167 1.539-8.823.885-1.04 2.154-1.772 4.116-1.772 1.963 0 3.232.732 4.079 1.772 1.423 1.618 1.539 3.891 1.539 8.823 0 4.931-.116 7.204-1.539 8.861zm-2.501-15.719c-.269-.463-.808-.809-1.578-.809-.808 0-1.269.346-1.577.809-.616.963-.731 3.082-.731 6.858 0 3.814.115 5.894.731 6.896.308.462.769.77 1.577.77.77 0 1.309-.308 1.578-.77.615-1.002.731-3.082.731-6.896 0-3.776-.116-5.895-.731-6.858zm15.313 17.26-4.963-12.329v12.329h-3.309v-20.766h2.962l4.925 12.328v-12.328h3.348v20.766h-2.963zm11.773 0v-20.766h3.309v20.766h-3.309zm13.274 0h-3.424l-4.617-20.766h3.655l2.693 15.757 2.732-15.757h3.617l-4.656 20.766zm14.274 0-.885-4.122h-4.886l-.808 4.122h-3.501l5.194-20.766h3.232l5.117 20.766h-3.463zm-3.308-15.758-1.809 8.707h3.617l-1.808-8.707zm.884-6.434h-2.193l2.117-4.045h2.654l-2.578 4.045zm16.121 22.153-4.963-12.328v12.328h-3.309v-20.766h2.963l4.925 12.329v-12.329h3.347v20.766h-2.963zm21.239-1.695c-.885.963-2.078 1.695-4.117 1.695h-5.348v-20.766h5.348c2.039 0 3.232.771 4.117 1.734 1.423 1.541 1.539 3.853 1.539 8.63 0 4.777-.116 7.128-1.539 8.707zm-2.501-15.257c-.308-.5-.885-.847-1.693-.847h-1.962v14.871h1.962c.808 0 1.385-.346 1.693-.847.654-.963.692-3.005.692-6.627s-.038-5.586-.692-6.55zm16.159 15.681c-1 1.002-2.347 1.503-3.924 1.503-1.578 0-2.924-.501-3.925-1.503-.923-.925-1.462-2.235-1.462-3.814v-15.681h3.309v15.835c0 1.502.962 2.234 2.078 2.234 1.116 0 2.039-.732 2.039-2.234v-15.835h3.309v15.681c0 1.579-.5 2.889-1.424 3.814zm14.89 1.965-1.731-1.426c-.77.578-1.847.964-3.271.964-1.962 0-3.193-.732-4.078-1.773-1.424-1.618-1.539-3.891-1.539-8.822 0-4.932.115-7.205 1.539-8.862.885-1.001 2.116-1.772 4.078-1.772 1.963 0 3.232.771 4.079 1.772 1.423 1.657 1.539 3.93 1.539 8.862 0 4.623-.154 6.357-.847 7.821l1.732 1.425-1.501 1.811zm-3.386-17.954c-.307-.462-.808-.77-1.616-.77s-1.269.308-1.577.77c-.654 1.002-.731 3.082-.731 6.897 0 3.814.077 5.894.731 6.857.308.501.769.809 1.577.809.308 0 .501-.038.731-.154l-1.115-.886 1.539-1.811.885.694c.23-1.156.269-2.735.269-5.509 0-3.815-.039-5.895-.693-6.897zm16.121 15.989c-1 1.002-2.308 1.503-3.886 1.503-1.577 0-2.924-.501-3.963-1.503-.884-.925-1.423-2.235-1.423-3.814v-15.681h3.309v15.835c0 1.502.962 2.234 2.077 2.234 1.116 0 2.04-.732 2.04-2.234v-15.835h3.308v15.681c0 1.579-.538 2.889-1.462 3.814zm4.848 1.271v-20.766h8.849v2.967h-5.54v5.894h4.771v2.929h-4.771v6.048h5.54v2.928H452.5z" clip-rule="evenodd"/><path fill="#7C7C7C" fill-rule="evenodd" d="M29.814 420.015v-11.25h4.81v1.579h-3.002v3.198H34.2v1.618h-2.578v3.275h3.001v1.58h-4.809zm10.504 0-1.347-4.046-1.308 4.046H35.7l2.27-5.818-2.078-5.432h1.962l1.116 3.775 1.154-3.775h1.962l-2.116 5.432 2.309 5.818h-1.962zm6.31-4.393H45.55v4.393h-1.808v-11.25h2.886c2.039 0 2.924 1.078 2.924 3.429 0 2.35-.885 3.428-2.925 3.428zm-.077-5.278h-1v3.66h1c.962 0 1.192-.655 1.192-1.81 0-1.118-.23-1.85-1.192-1.85zm9.157 9.671-1.462-4.624h-1.04v4.624h-1.77v-11.25h2.886c2.078 0 2.925 1.001 2.925 3.313 0 1.387-.308 2.389-1.347 2.928l1.693 5.009h-1.885zm-1.386-9.671h-1.115v3.468h1.115c.962 0 1.116-.809 1.116-1.734 0-.925-.154-1.734-1.116-1.734zm5.08 9.671v-11.25h4.809v1.579H61.21v3.198h2.577v1.618H61.21v3.275h3v1.58h-4.809zm11.426-.617c-.461.424-1.23.732-2.231.732-1 0-1.732-.269-2.193-.732-.577-.539-.77-1.233-.77-2.427h1.808c0 .578.078.963.347 1.271.154.154.423.27.808.27.423 0 .692-.077.885-.308.23-.27.308-.655.308-1.233 0-1.194-.193-1.503-1.078-1.849l-1.385-.54c-1.154-.501-1.577-1.117-1.577-2.851 0-1.001.307-1.811.923-2.388.5-.424 1.154-.655 1.962-.655.924 0 1.578.231 2.04.655.615.577.807 1.387.807 2.465h-1.77c0-.501-.038-.924-.307-1.194-.154-.231-.385-.347-.77-.347s-.615.116-.77.308c-.23.232-.307.617-.307 1.118 0 .924.115 1.194.923 1.502l1.347.54c1.385.578 1.731 1.271 1.731 3.159 0 1.156-.154 1.926-.73 2.504zm2.617.617v-11.25h1.808v11.25h-1.808zm9.157-.925c-.462.501-1.116.925-2.193.925h-2.925v-11.25h2.925c1.077 0 1.731.423 2.193.924.77.848.846 2.081.846 4.701 0 2.581-.077 3.852-.846 4.7zm-1.347-8.283c-.192-.27-.462-.463-.923-.463h-1.04v8.091h1.04c.461 0 .73-.193.923-.462.346-.54.385-1.657.385-3.583 0-1.965-.039-3.044-.385-3.583zm4.117 9.208v-11.25h4.81v1.579H87.18v3.198h2.578v1.618H87.18v3.275h3.001v1.58h-4.81zm11.158 0-2.694-6.666v6.666h-1.808v-11.25h1.616l2.655 6.703v-6.703h1.808v11.25H96.53zm6.925-9.671v9.671h-1.808v-9.671h-1.924v-1.579h5.656v1.579h-1.924zm3.54 9.671v-11.25h4.771v1.579h-3.001v3.198h2.616v1.618h-2.616v3.275h3.001v1.58h-4.771zM122 419.09c-.462.501-1.154.925-2.232.925h-2.885v-11.25h2.885c1.078 0 1.77.423 2.232.924.77.848.808 2.081.808 4.701 0 2.581-.038 3.852-.808 4.7zm-1.347-8.283c-.192-.27-.5-.463-.923-.463h-1.077v8.091h1.077c.423 0 .731-.193.923-.462.347-.54.385-1.657.385-3.583 0-1.965-.038-3.044-.385-3.583zm4.117 9.208v-11.25h4.771v1.579h-3.001v3.198h2.578v1.618h-2.578v3.275h3.001v1.58h-4.771zm14.582-.578c-.5.462-1.116.693-1.962.693-1.077 0-1.77-.385-2.232-.963-.731-.886-.807-2.119-.807-4.777 0-2.659.076-3.892.807-4.778.462-.578 1.155-.963 2.232-.963.846 0 1.501.231 2.001.732.577.501.885 1.349.923 2.35h-1.808c0-.385-.077-.809-.27-1.079-.153-.269-.423-.423-.846-.423s-.693.192-.846.423c-.347.54-.424 1.696-.424 3.738s.077 3.197.424 3.737c.153.231.423.424.846.424s.693-.155.846-.424c.193-.27.27-.694.27-1.079h1.808c-.038 1.002-.385 1.849-.962 2.389zm7.811-.27c-.462.578-1.155.963-2.232.963-1.039 0-1.731-.385-2.193-.963-.769-.886-.846-2.119-.846-4.777 0-2.659.077-3.892.846-4.778.462-.578 1.154-.963 2.193-.963 1.077 0 1.77.385 2.232.963.769.886.846 2.119.846 4.778 0 2.658-.077 3.891-.846 4.777zm-1.347-8.515c-.154-.231-.423-.423-.885-.423-.423 0-.654.192-.846.423-.308.54-.385 1.696-.385 3.738s.077 3.197.385 3.737c.192.231.423.424.846.424.462 0 .731-.193.885-.424.346-.54.385-1.695.385-3.737s-.039-3.198-.385-3.738zm4.117 9.363v-11.25h1.808v9.67h3.001v1.58h-4.809zm11.081-.848c-.462.578-1.155.963-2.193.963-1.078 0-1.77-.385-2.232-.963-.769-.886-.846-2.119-.846-4.777 0-2.659.077-3.892.846-4.778.462-.578 1.154-.963 2.232-.963 1.038 0 1.731.385 2.193.963.769.886.846 2.119.846 4.778 0 2.658-.077 3.891-.846 4.777zm-1.347-8.515c-.154-.231-.423-.423-.846-.423-.462 0-.693.192-.885.423-.308.54-.385 1.696-.385 3.738s.077 3.197.385 3.737c.192.231.423.424.885.424.423 0 .692-.193.846-.424.346-.54.385-1.695.385-3.737s-.039-3.198-.385-3.738zm10.004 9.363v-7.012l-1.578 4.623h-1l-1.501-4.546v6.935h-1.808v-11.25h1.616l2.231 5.894 2.193-5.894h1.616v11.25h-1.769zm9.157-.694c-.501.462-1.193.694-2.27.694h-2.848v-11.25h2.886c1.039 0 1.731.231 2.193.693.539.54.731 1.079.731 2.312 0 .809-.115 1.425-.654 1.965a1.406 1.406 0 0 1-.616.385c.27.116.462.27.655.424.5.539.654 1.194.654 2.234 0 1.349-.193 1.965-.731 2.543zm-2.424-4.392h-.885v3.506h.885c.962 0 1.346-.462 1.346-1.772 0-1.233-.384-1.734-1.346-1.734zm0-4.585h-.885v3.082h.885c.962 0 1.308-.462 1.308-1.541 0-1.117-.346-1.541-1.308-1.541zm5.194 9.671v-11.25h1.808v11.25h-1.808zm8.618 0-.461-2.235H187.1l-.462 2.235h-1.885l2.808-11.25h1.77l2.77 11.25h-1.885zm-1.808-8.515-.962 4.7h1.962l-1-4.7zm11.273 4.122v4.393h-1.808v-4.393l-2.232-6.857h2.001l1.116 4.469 1.154-4.469h1.962l-2.193 6.857zm9.58 0h-1.077v4.431h-1.808v-11.25h2.885c2.078 0 2.924 1.079 2.924 3.429 0 2.35-.846 3.39-2.924 3.39zm-.077-5.239h-1v3.66h1c.962 0 1.232-.694 1.232-1.811 0-1.156-.27-1.849-1.232-1.849zm9.196 9.67-1.501-4.623h-1v4.623h-1.808v-11.25h2.885c2.078 0 2.924 1.002 2.924 3.314 0 1.387-.307 2.388-1.346 2.928l1.693 5.008h-1.847zm-1.385-9.67h-1.116v3.467h1.116c.962 0 1.116-.809 1.116-1.733 0-.925-.154-1.734-1.116-1.734zm9.965 8.823c-.462.539-1.154.963-2.232.963-1.039 0-1.731-.424-2.193-.963-.769-.887-.846-2.119-.846-4.778 0-2.697.077-3.891.846-4.816.462-.539 1.154-.963 2.193-.963 1.078 0 1.77.424 2.232.963.769.886.846 2.119.846 4.816 0 2.659-.077 3.891-.846 4.778zm-1.347-8.515c-.154-.27-.423-.424-.885-.424-.423 0-.692.154-.846.424-.308.539-.385 1.657-.385 3.737 0 2.042.077 3.198.385 3.699.154.269.423.462.846.462.462 0 .731-.193.885-.462.346-.501.385-1.657.385-3.699 0-2.08-.039-3.198-.385-3.737zm10.004 9.362v-7.012l-1.578 4.585h-1l-1.501-4.508v6.935h-1.808v-11.25h1.616l2.232 5.895 2.193-5.895h1.616v11.25h-1.77zm9.003-.847c-.462.539-1.154.963-2.193.963-1.078 0-1.77-.424-2.232-.963-.769-.887-.846-2.119-.846-4.778 0-2.697.077-3.891.846-4.816.462-.539 1.154-.963 2.232-.963 1.039 0 1.731.424 2.193.963.769.886.846 2.119.846 4.816 0 2.659-.077 3.891-.846 4.778zm-1.347-8.515c-.154-.27-.423-.424-.846-.424-.462 0-.693.154-.885.424-.308.539-.385 1.657-.385 3.737 0 2.042.077 3.198.385 3.699.192.269.423.462.885.462.423 0 .692-.193.846-.462.346-.501.385-1.657.385-3.699 0-2.08-.039-3.198-.385-3.737zm7.041-.308v9.67h-1.808v-9.67h-1.885v-1.58h5.617v1.58h-1.924zm8.349 8.823c-.461.539-1.154.963-2.231.963-1.039 0-1.732-.424-2.193-.963-.77-.887-.847-2.119-.847-4.778 0-2.697.077-3.891.847-4.816.461-.539 1.154-.963 2.193-.963 1.077 0 1.77.424 2.231.963.77.886.808 2.119.808 4.816 0 2.659-.038 3.891-.808 4.778zm-1.346-8.515c-.193-.27-.462-.424-.885-.424-.424 0-.693.154-.847.424-.346.539-.385 1.657-.385 3.737 0 2.042.039 3.198.385 3.699.154.269.423.462.847.462.423 0 .692-.193.885-.462.307-.501.384-1.657.384-3.699 0-2.08-.077-3.198-.384-3.737zm8.387 9.362-1.462-4.623h-1.039v4.623h-1.77v-11.25h2.886c2.078 0 2.924 1.002 2.924 3.314 0 1.387-.308 2.388-1.346 2.928l1.692 5.008h-1.885zm-1.385-9.67h-1.116v3.467h1.116c.962 0 1.116-.809 1.116-1.733 0-.925-.154-1.734-1.116-1.734zm13.389 8.707c-.461.539-1.115.963-2.231.963h-2.886v-11.25h2.886c1.116 0 1.77.385 2.231.925.77.847.847 2.08.847 4.662 0 2.619-.077 3.891-.847 4.7zm-1.346-8.245c-.193-.27-.5-.462-.924-.462h-1.039v8.052h1.039c.424 0 .731-.193.924-.462.346-.501.384-1.618.384-3.583s-.038-3.006-.384-3.545zm4.117 9.208v-11.25h4.809v1.58h-3.001v3.198h2.578v1.579h-2.578v3.275h3.001v1.618h-4.809zm9.849 0v-11.25h1.77v9.632h3.001v1.618h-4.771zm11.466 0-.501-2.234h-2.616l-.462 2.234h-1.885l2.809-11.25h1.731l2.77 11.25h-1.846zm-1.77-8.553-.962 4.7h1.924l-.962-4.7zm8.233 8.553v-11.25h4.81v1.58h-3.001v3.198h2.578v1.618h-2.578v3.236h3.001v1.618h-4.81zm11.389-.578c-.539.463-1.116.694-2.001.694-1.038 0-1.731-.424-2.193-.963-.769-.887-.846-2.119-.846-4.778 0-2.658.077-3.891.846-4.777.462-.578 1.155-.963 2.193-.963.885 0 1.501.231 2.04.693.577.539.846 1.387.884 2.389H318.8c-.039-.424-.077-.809-.27-1.079-.192-.27-.423-.424-.885-.424-.423 0-.654.193-.846.424-.346.539-.385 1.695-.385 3.737s.039 3.198.385 3.737c.192.231.423.424.846.424.462 0 .693-.154.885-.424.193-.269.231-.693.27-1.117h1.769c-.038 1.04-.346 1.888-.923 2.427zm7.81-.269c-.461.539-1.154.963-2.231.963-1.039 0-1.731-.424-2.193-.963-.77-.887-.847-2.119-.847-4.778 0-2.658.077-3.891.847-4.777.462-.578 1.154-.963 2.193-.963 1.077 0 1.77.385 2.231.963.77.886.808 2.119.808 4.777 0 2.659-.038 3.891-.808 4.778zm-1.346-8.515a1.095 1.095 0 0 0-.885-.424c-.423 0-.693.193-.847.424-.346.539-.384 1.695-.384 3.737s.038 3.198.384 3.737c.154.231.424.424.847.424s.692-.193.885-.424c.308-.539.385-1.695.385-3.737s-.077-3.198-.385-3.737zm8.58 9.362-2.693-6.704v6.704h-1.77v-11.25h1.577l2.693 6.665v-6.665h1.809v11.25h-1.616zm8.772-.847c-.462.539-1.154.963-2.193.963-1.077 0-1.77-.424-2.232-.963-.769-.887-.846-2.119-.846-4.778 0-2.658.077-3.891.846-4.777.462-.578 1.155-.963 2.232-.963 1.039 0 1.731.385 2.193.963.77.886.847 2.119.847 4.777 0 2.659-.077 3.891-.847 4.778zm-1.347-8.515c-.153-.231-.423-.424-.846-.424-.462 0-.693.193-.885.424-.308.539-.385 1.695-.385 3.737s.077 3.198.385 3.737c.192.231.423.424.885.424.423 0 .693-.193.846-.424.347-.539.385-1.695.385-3.737s-.038-3.198-.385-3.737zm10.004 9.362v-7.012l-1.578 4.623h-1l-1.5-4.546v6.935h-1.809v-11.25h1.616l2.232 5.895 2.193-5.895h1.616v11.25h-1.77zm4.04 0v-11.25h1.808v11.25h-1.808zm1.346-12.02h-1.154l1.154-2.196h1.424l-1.424 2.196zm7.234 12.02-.462-2.234h-2.655l-.423 2.234h-1.924l2.809-11.25h1.77l2.77 11.25h-1.885zm-1.77-8.553-1 4.739h1.962l-.962-4.739zm12.697 8.515-2.694-6.666v6.666h-1.769v-11.25h1.577l2.693 6.703v-6.703h1.809v11.25h-1.616zm8.387 0-.461-2.235h-2.655l-.423 2.235h-1.924l2.808-11.25h1.77l2.77 11.25h-1.885zm-1.77-8.515-1 4.7h1.962l-.962-4.7zm9.35 8.515-1.501-4.624h-1v4.624h-1.808v-11.25h2.885c2.078 0 2.924 1.001 2.924 3.313 0 1.387-.307 2.389-1.346 2.967l1.693 4.97h-1.847zm-1.385-9.632h-1.116v3.429h1.116c.962 0 1.115-.771 1.115-1.734 0-.925-.153-1.695-1.115-1.695zm9.657 9.632-.462-2.235h-2.655l-.461 2.235h-1.886l2.809-11.25h1.77l2.77 11.25h-1.885zm-1.808-8.515-.962 4.7h1.962l-1-4.7zm9.503 8.515-2.693-6.666v6.666h-1.77v-11.25h1.577l2.694 6.703v-6.703h1.808v11.25H407.6zm7.426-.694c-.539.539-1.27.848-2.27.848-.924 0-1.693-.347-2.27-.925l1.269-1.156c.193.27.577.463 1.001.463.731 0 1.269-.501 1.269-1.464v-8.322h1.809v8.322c0 .886-.27 1.695-.808 2.234zm7.425.694-.461-2.196h-2.617l-.461 2.196h-1.886l2.809-11.25h1.731l2.771 11.25h-1.886zm-1.77-8.515-1 4.7h1.962l-.962-4.7zm8.234 8.553v-11.25h4.809v1.58h-3.001v3.198h2.578v1.579h-2.578v3.275h3.001v1.618h-4.809zm11.158 0-2.693-6.704v6.704h-1.809v-11.25h1.616l2.655 6.665v-6.665h1.808v11.25h-1.577zm11.581 0-.462-2.234h-2.655l-.423 2.234h-1.924l2.809-11.25h1.77l2.77 11.25h-1.885zm-1.77-8.553-1 4.7h1.962l-.962-4.7zm10.927 8.553v-7.012l-1.578 4.585h-1l-1.501-4.508v6.935h-1.808v-11.25h1.616l2.232 5.895 2.193-5.895h1.616v11.25h-1.77zm4.04 0v-11.25h4.809v1.58h-3.001v3.198h2.578v1.579h-2.578v3.275h3.001v1.618h-4.809zm2.924-12.02h-1.193l1.154-2.196h1.424l-1.385 2.196zm8.041 12.02-1.462-4.623h-1.039v4.623h-1.77v-11.25h2.886c2.078 0 2.886 1.002 2.886 3.314 0 1.387-.27 2.388-1.309 2.928l1.693 5.008h-1.885zm-1.385-9.67h-1.116v3.467h1.116c.962 0 1.116-.809 1.116-1.733 0-.925-.154-1.734-1.116-1.734zm5.079 9.67v-11.25h1.808v11.25h-1.808zm8.733-.578c-.5.463-1.115.694-1.962.694-1.077 0-1.77-.424-2.231-.963-.731-.887-.808-2.119-.808-4.778 0-2.658.077-3.891.808-4.777.461-.578 1.154-.963 2.231-.963.847 0 1.501.231 2.001.693.577.539.885 1.387.923 2.389h-1.808c0-.424-.077-.809-.269-1.079-.154-.27-.423-.424-.847-.424-.423 0-.692.154-.846.424-.346.539-.423 1.657-.423 3.737 0 2.042.077 3.198.423 3.737.154.231.423.424.846.424.424 0 .693-.154.847-.424.192-.269.269-.693.269-1.117h1.808c-.038 1.04-.384 1.888-.962 2.427zm7.195.578-.461-2.234h-2.655l-.462 2.234h-1.885l2.809-11.25h1.731l2.809 11.25h-1.886zm-1.808-8.553-.962 4.739h1.962l-1-4.739zm8.195 8.515v-11.25h1.808v9.67h3.002v1.58h-4.81zm11.427 0-.461-2.235h-2.655l-.423 2.235h-1.924l2.808-11.25h1.77l2.771 11.25h-1.886zm-1.77-8.515-1 4.7h1.962l-.962-4.7zm7.465-1.117v9.632h-1.77v-9.632h-1.924v-1.618h5.617v1.618h-1.923zm3.539 9.632v-11.25h1.809v11.25h-1.809zm8.542 0-2.694-6.666v6.666h-1.808v-11.25h1.616l2.655 6.703v-6.703h1.808v11.25h-1.577zm8.387 0-.461-2.235h-2.617l-.461 2.235h-1.886l2.809-11.25h1.731l2.771 11.25h-1.886zm-1.77-8.515-1 4.7h1.962l-.962-4.7zm5.31 8.515v-1.927h1.962v1.927h-1.962z" clip-rule="evenodd"/><path fill="#FF6D00" d="m164.63 127.977-2 28.549h-2.617c-1.885-7.243-13.427 0-27.625 0-28.625 0-48.286-19.186-48.286-44.73 0-25.428 17.93-44.73 47.286-44.73 14.197 0 25.74 7.204 27.625 0h2.616l2.001 28.01h-3.501c-3.232-15.18-11.427-24.427-28.741-23.271-14.813.847-24.509 14.293-24.509 39.991 0 25.659 10.696 39.491 25.509 40.107 17.276.732 25.509-8.592 28.741-23.926h3.501z"/><path fill="#FF6D00" fill-rule="evenodd" d="M238.772 151.633c-2.232 2.62-6.118 4.893-13.082 4.893-6.695 0-14.543-2.273-16.429-8.245-4.347 6.743-11.311 8.245-17.544 8.245-10.312 0-20.007-3.39-21.777-12.483-1.732-9.092 2.885-17.568 17.544-20.535 11.697-2.388 18.93.116 17.545-8.476-1.116-6.357-3.347-12.983-9.58-12.983-7.811-.617-11.427 7.127-6.58 11.095-3.001 5.356-8.079 5.741-11.581 4.123-3.231-1.618-4.578-5.124-2.847-9.478 2.963-8.09 13.813-10.094 20.892-10.094 19.93 0 28.125 6.627 30.357 22.307a3633.713 3633.713 0 0 1 2.385 17.569c.732 4.353 1.463 9.362 2.732 10.98 1.347 1.618 4.117 1.734 6.964.347.5 1.387.616 1.502 1.001 2.735zm-30.973-15.565c-.385-4.469-.885-9.092-1.385-12.213-1 2.003-2.347 2.62-8.695 4.392-5.348 1.618-9.08 6.203-8.234 12.56.885 5.741 6.464 9.208 11.081 7.975 5.963-1.348 7.579-6.742 7.233-12.714z" clip-rule="evenodd"/><path fill="#FF6D00" d="M302.217 114.531c-3.001 7.205-10.581 8.322-14.698 6.858 1.27-4.392 1.27-9.747-3.616-11.365-5.579-1.734-10.042 1.387-10.542 6.973v20.689c0 7.86.731 14.333 10.195 14.333v3.351h-41.052v-3.351c9.58 0 10.696-6.473 10.696-14.333v-12.56c0-7.859-1.116-14.332-10.696-14.332v-3.39c7.31 0 19.891-3.082 27.471-9.709h3.386v11.211c3.963-7.589 9.926-12.714 19.16-11.211 8.926 1.503 12.428 9.709 9.696 16.836zm47.016 37.488v3.351h-41.052v-3.351c9.464 0 10.696-6.473 10.696-14.333v-12.559c0-7.86-1.232-14.333-10.696-14.333v-3.39c7.233 0 19.891-2.967 27.355-9.709h3.386v39.991c0 7.86.731 14.333 10.311 14.333zm-34.82-72.008c0-6.473 5.579-11.828 12.428-11.828 6.848 0 12.427 5.355 12.427 11.828 0 6.473-5.579 11.828-12.427 11.828-6.849 0-12.428-5.355-12.428-11.828z"/><path fill="#FF6D00" fill-rule="evenodd" d="M423.144 127.091c0 17.569-12.312 32.171-31.242 29.435-7.195-1.001-12.312-4.739-15.775-9.362l-15.582 8.206h-3.117V95.692c0-7.821-1.115-14.294-10.696-14.294v-3.506c7.349 0 19.93-3.005 27.51-9.709h3.347v35.985c3.232-3.237 7.734-5.702 13.197-6.473 18.93-2.62 32.358 11.828 32.358 29.396zm-20.546-1.618c-2.616-14.794-8.464-23.656-16.044-22.423-7.58 1.387-10.196 11.713-7.58 26.661 2.617 14.833 8.58 23.695 16.16 22.423 7.618-1.348 10.08-11.712 7.464-26.661zm86.607 12.098c-4.116 9.362-13.081 18.955-28.356 18.955-18.814 0-31.241-12.097-32.473-27.046-1.769-20.073 13.313-31.785 31.973-31.785 16.66 0 27.856 8.977 27.241 25.428l-38.437 6.473c2.963 16.066 26.971 18.069 37.936 6.241 0 0 2.116 1.618 2.116 1.734zm-40.822-12.83 20.431-3.506c.615-11.943-2.116-19.803-10.696-19.032-7.849.732-11.235 10.71-9.735 22.538z" clip-rule="evenodd"/><path fill="#FF6D00" d="M160.59 166.505v2.812c-7.772 0-9.003 2.928-9.003 11.636v56.288h-6.156l-46.44-58.716v44.384c0 8.591 2.425 11.635 10.12 11.635v2.697H86.103v-2.697c7.656 0 8.849-3.044 8.849-11.635v-41.956c0-6.357-1.193-11.636-8.85-11.636v-2.812h26.818l34.743 43.266v-28.818c0-8.708-2.424-11.636-10.081-11.636v-2.812h23.008z"/><path fill="#FF6D00" fill-rule="evenodd" d="M215.725 234.236c-1.847 2.119-4.963 3.93-10.619 3.93-5.463 0-11.812-1.811-13.312-6.666-3.54 5.471-9.196 6.666-14.236 6.666-8.388 0-16.275-2.736-17.66-10.095-1.424-7.397 2.308-14.255 14.236-16.682 9.464-1.926 15.313.077 14.197-6.896-.885-5.124-2.693-10.518-7.772-10.518-6.348-.501-9.273 5.779-5.348 9.015-2.424 4.354-6.541 4.662-9.388 3.352-2.616-1.348-3.732-4.161-2.308-7.705 2.423-6.55 11.196-8.168 16.967-8.168 16.159 0 22.816 5.355 24.624 18.069 1.424 10.21 1.924 14.255 1.924 14.255.615 3.545 1.192 7.59 2.231 8.9 1.116 1.31 3.309 1.426 5.656.308.385 1.118.5 1.233.808 2.235zm-25.163-12.637c-.307-3.66-.692-7.397-1.115-9.902-.808 1.619-1.886 2.119-7.041 3.506-4.348 1.349-7.387 5.086-6.656 10.21.692 4.662 5.232 7.513 8.964 6.473 4.848-1.079 6.156-5.433 5.848-10.287z" clip-rule="evenodd"/><path fill="#FF6D00" d="M267.205 204.107c-2.424 5.857-8.58 6.781-11.928 5.548 1.001-3.544 1.001-7.898-2.924-9.208-4.54-1.387-8.195 1.118-8.58 5.664v16.798c0 6.357.616 11.635 8.273 11.635v2.697h-33.32v-2.697c7.772 0 8.696-5.278 8.696-11.635v-10.21c0-6.357-.924-11.635-8.696-11.635v-2.736c5.964 0 16.16-2.504 22.316-7.859h2.731v9.092c3.232-6.164 8.08-10.325 15.544-9.092 7.272 1.194 10.081 7.859 7.888 13.638z"/><path fill="#FF6D00" fill-rule="evenodd" d="M324.109 234.236c-1.808 2.119-4.925 3.93-10.581 3.93-5.463 0-11.811-1.811-13.312-6.666-3.54 5.471-9.195 6.666-14.236 6.666-8.387 0-16.275-2.736-17.698-10.095-1.385-7.397 2.347-14.255 14.236-16.682 9.503-1.926 15.351.077 14.235-6.896-.885-5.124-2.693-10.518-7.772-10.518-6.348-.501-9.272 5.779-5.348 9.015-2.424 4.354-6.54 4.662-9.387 3.352-2.617-1.348-3.733-4.161-2.309-7.705 2.424-6.55 11.196-8.168 16.967-8.168 16.16 0 22.816 5.355 24.624 18.069 1.424 10.21 1.924 14.255 1.924 14.255.616 3.545 1.193 7.59 2.232 8.9 1.077 1.31 3.309 1.426 5.656.308.384 1.118.5 1.233.769 2.235zm-25.124-12.637c-.308-3.66-.693-7.397-1.116-9.902-.808 1.619-1.924 2.119-7.041 3.506-4.347 1.349-7.387 5.086-6.694 10.21.731 4.662 5.271 7.513 9.003 6.473 4.848-1.079 6.156-5.433 5.848-10.287z" clip-rule="evenodd"/><path fill="#FF6D00" d="M396.596 234.544v2.697H364.2v-2.697c7.695 0 7.772-5.471 7.08-11.635 0 0-1.424-9.208-2.04-12.945-.885-5.972-1.616-11.404-8.58-11.404-6.04 0-8.58 5.355-8.58 12.097v12.252c0 6.357.616 11.635 8.273 11.635v2.697h-33.204v-2.697c7.695 0 8.695-5.278 8.695-11.635v-10.21c0-6.357-1-11.635-8.695-11.635v-2.736c5.848 0 16.159-2.504 22.2-7.859h2.731v7.859c3.04-4.238 7.888-7.859 16.045-7.859 10.195 0 15.659 5.432 17.467 18.185 1.424 10.094 1.924 14.255 1.924 14.255.808 5.972 1.424 11.635 9.08 11.635z"/><path fill="#FF6D00" d="M424.26 190.469v47.388c0 14.448-3.617 25.197-18.468 25.197-6.849 0-16.468-3.66-17.16-12.136-.5-6.395 3.424-10.017 8.58-9.824 5.232.192 7.464 4.546 7.464 7.474-3.117.308-4.732 2.119-4.54 5.779.192 3.429 2.616 5.047 5.656 5.047 5.155 0 6.964-5.162 4.963-10.71-1.539-4.431-2.847-7.976-2.847-13.639v-22.346c0-6.357-1.001-11.635-8.696-11.635v-2.736c5.887 0 16.16-2.427 22.316-7.859h2.732zm-19.969-14.371c0-5.24 4.54-9.593 10.081-9.593 5.655 0 10.08 4.353 10.08 9.593s-4.425 9.593-10.08 9.593c-5.541 0-10.081-4.353-10.081-9.593z"/><path fill="#FF6D00" fill-rule="evenodd" d="M487.666 234.236c-1.808 2.119-4.963 3.93-10.619 3.93-5.425 0-11.812-1.811-13.312-6.666-3.54 5.471-9.196 6.666-14.236 6.666-8.387 0-16.236-2.736-17.66-10.095-1.424-7.397 2.309-14.255 14.236-16.682 9.503-1.926 15.351.077 14.236-6.896-.924-5.124-2.732-10.518-7.772-10.518-6.349-.501-9.311 5.779-5.348 9.015-2.424 4.354-6.58 4.662-9.388 3.352-2.617-1.348-3.732-4.161-2.347-7.705 2.424-6.55 11.234-8.168 16.967-8.168 16.16 0 22.816 5.355 24.624 18.069 1.424 10.21 1.924 14.255 1.924 14.255.615 3.545 1.231 7.59 2.231 8.9 1.116 1.31 3.348 1.426 5.656.308.385 1.118.5 1.233.808 2.235zm-25.124-12.637c-.308-3.66-.731-7.397-1.116-9.902-.808 1.619-1.923 2.119-7.079 3.506-4.348 1.349-7.349 5.086-6.656 10.21.692 4.662 5.232 7.513 8.964 6.473 4.848-1.079 6.156-5.433 5.887-10.287z" clip-rule="evenodd"/><path fill="#FF6D00" fill-rule="evenodd" d="M487.666 219.056c.949 0 1.783.206 2.501.617.718.41 1.283.976 1.693 1.695.385.719.577 1.528.577 2.427 0 .873-.192 1.669-.577 2.389a4.474 4.474 0 0 1-1.693 1.695c-.718.411-1.552.616-2.501.616-.949 0-1.782-.205-2.5-.616a4.467 4.467 0 0 1-1.693-1.695c-.385-.72-.577-1.516-.577-2.389 0-.899.192-1.708.577-2.427a4.46 4.46 0 0 1 1.693-1.695c.718-.411 1.551-.617 2.5-.617zm0 .848c-.769 0-1.449.167-2.039.501a3.47 3.47 0 0 0-1.308 1.348c-.308.591-.462 1.259-.462 2.003 0 .745.154 1.413.462 2.004a3.41 3.41 0 0 0 1.308 1.387c.59.334 1.27.501 2.039.501.77 0 1.45-.167 2.04-.501a3.41 3.41 0 0 0 1.308-1.387c.308-.591.461-1.259.461-2.004 0-.744-.153-1.399-.461-1.964a3.403 3.403 0 0 0-1.308-1.387c-.59-.334-1.27-.501-2.04-.501zm2.04 2.697c0 .359-.09.655-.27.886a1.517 1.517 0 0 1-.654.539l1.27 2.427h-1.154l-1.078-2.196h-.923v2.196h-1.039v-5.471h1.808c.616 0 1.103.142 1.462.424.385.257.578.655.578 1.195zm-1.078.038c0-.334-.089-.552-.269-.655-.205-.103-.526-.154-.962-.154h-.5v1.618h.462c.41 0 .731-.064.961-.192.206-.103.308-.309.308-.617z" clip-rule="evenodd"/><path fill="#FF6D00" d="M209.492 47.648h-2.039c-2.001-6.434-5.156-11.327-10.696-11.327h-8.926v18.686h1.077c5.54 0 9.157 0 9.657-8.052h1.809V65.64h-1.809c-.5-8.052-4.117-8.052-9.657-8.052h-1.077v12.098c0 4.931 2.385 7.435 7.31 7.435v1.734h-24.239v-1.734c4.886 0 6.04-3.351 6.04-7.435V42.948c0-4.046-1.154-7.398-6.04-7.398v-1.81h37.59l1 13.908z"/><path fill="#FF6D00" fill-rule="evenodd" d="M240.965 64.215c0 9.092-7.003 15.218-16.66 15.218-9.696 0-16.737-6.126-16.737-15.218 0-9.093 7.041-15.18 16.737-15.18 9.657 0 16.66 6.087 16.66 15.18zm-10.542-1.079c-1.347-7.744-4.425-12.329-8.35-11.597-3.924.694-5.232 6.05-3.886 13.793 1.347 7.667 4.464 12.252 8.311 11.597 3.925-.732 5.271-6.049 3.925-13.793z" clip-rule="evenodd"/><path fill="#FF6D00" d="M273.784 57.704c-1.539 3.737-5.464 4.315-7.58 3.544.654-2.234.654-5.008-1.847-5.856-2.924-.886-5.232.732-5.501 3.622v10.672c0 4.083.384 7.435 5.271 7.435v1.734h-21.2v-1.734c4.925 0 5.502-3.352 5.502-7.435v-6.473c0-4.084-.577-7.436-5.502-7.436v-1.733c3.77 0 10.273-1.619 14.197-5.009h1.732v5.78c2.077-3.93 5.155-6.55 9.926-5.78 4.617.77 6.425 5.009 5.002 8.669z"/><path fill="#FF6D00" fill-rule="evenodd" d="M308.373 64.215c0 9.092-7.041 15.218-16.698 15.218-9.696 0-16.698-6.126-16.698-15.218 0-9.093 7.002-15.18 16.698-15.18 9.657 0 16.698 6.087 16.698 15.18zm-10.581-1.079c-1.346-7.744-4.424-12.329-8.349-11.597-3.924.694-5.232 6.05-3.886 13.793 1.385 7.667 4.463 12.252 8.311 11.597 3.924-.732 5.271-6.049 3.924-13.793z" clip-rule="evenodd"/><path fill="#FF6D00" d="m446.691 86.907-48.864-14.833c-2.424-.77-3.809-3.352-3.078-5.779l7.849-25.852c.731-2.427 3.309-3.814 5.771-3.082l48.825 14.833c2.424.732 3.809 3.352 3.078 5.78l-7.849 25.851c-.731 2.427-3.309 3.814-5.732 3.082z"/><path fill="#fff" fill-rule="evenodd" d="m401.675 65.679.808-2.659 8.387-8.553c.731-.732 1.539-1.926 2.001-3.467.346-1.194-.115-2.004-.962-2.273-.885-.27-1.77.115-2.154 1.31l-.385 1.348-3.155-.963.346-1.233c.539-1.657 1.308-2.543 2.386-3.082 1.077-.54 2.5-.578 3.809-.193 1.269.424 2.308 1.079 2.924 2.12.615 1.04.808 2.388.307 4.045-.461 1.54-1.462 3.159-2.539 4.238l-7.541 7.59 5.964 1.81-.847 2.813-9.349-2.851zm20.238 5.047c-1.078.54-2.424.616-3.771.192-1.308-.385-2.424-1.194-3.001-2.273-.616-1.04-.808-2.196-.308-3.852l3.655-11.982c.501-1.696 1.309-2.543 2.386-3.083 1.077-.539 2.462-.577 3.77-.192 1.309.385 2.386 1.233 3.001 2.273.578 1.04.808 2.196.308 3.853l-3.655 12.02c-.5 1.657-1.308 2.504-2.385 3.044zm2.885-16.143c.385-1.194-.154-2.003-1-2.235-.847-.27-1.77.077-2.116 1.31l-3.732 12.213c-.347 1.195.192 2.004 1.039 2.273.884.27 1.731-.115 2.116-1.31l3.693-12.251zm.77 18.339.808-2.659 8.426-8.553c.731-.732 1.5-1.926 1.962-3.467.385-1.194-.077-2.003-.962-2.273-.846-.27-1.731.116-2.116 1.31l-.423 1.348-3.155-.963.385-1.233c.5-1.695 1.269-2.543 2.347-3.082 1.077-.54 2.539-.578 3.809-.193 1.308.386 2.347 1.08 2.962 2.12.577 1.04.808 2.388.308 4.045-.462 1.54-1.501 3.159-2.578 4.238l-7.541 7.59 5.964 1.81-.847 2.774-9.349-2.812zm21.353 2.928-1 3.275-3.155-.963 1-3.275-5.925-1.772.847-2.813 9.965-13.176 3.078.924-9.773 13.254 2.655.809 1.116-3.737 3.155.963-1.116 3.737 1.462.462-.847 2.774-1.462-.462z" clip-rule="evenodd"/></g><defs><clipPath id="a"><path fill="#fff" d="M12 6h550v428H12z"/></clipPath></defs></svg>